<svg xmlns="http://www.w3.org/2000/svg" fill="none" viewBox="0 0 111 48" height="48" width="111">
<g clip-path="url(#clip0_901_46)">
<path fill="#0DBA4B" d="M0 24.124C0 10.8933 10.7278 0.165527 23.9585 0.165527C37.1893 0.165527 47.917 10.8933 47.917 24.124C47.917 37.3548 37.1893 48.0826 23.9585 48.0826C10.7278 48.0826 0 37.3548 0 24.124ZM31.8815 23.6455V15.6918C31.8022 12.9155 30.2271 10.5042 27.9174 9.20345C26.7546 8.54536 25.4016 8.17004 23.9586 8.17004H23.9534C22.5104 8.17004 21.1574 8.54536 19.9893 9.20859C17.6215 10.5453 16.0253 13.044 16.0306 15.9026C16.0306 18.7663 17.6267 21.265 19.9946 22.6018C21.1468 23.2496 22.4787 23.6249 23.9058 23.6352H23.9534H23.9586C23.9765 23.6352 23.9956 23.634 24.0154 23.6328C24.0365 23.6314 24.0584 23.6301 24.0802 23.6301C25.1267 23.5684 25.9512 22.7303 25.9512 21.7021C25.9512 21.5581 25.9354 21.4141 25.9037 21.2805C25.7081 20.4167 24.91 19.7689 23.9586 19.7689H23.9534C21.7652 19.7689 19.9893 18.0363 19.9893 15.9026C19.9893 13.769 21.7652 12.0363 23.9534 12.0363H23.9586C26.0992 12.0363 27.8434 13.697 27.9174 15.7689C27.9188 15.809 27.9184 15.8334 27.9179 15.8587C27.9177 15.8717 27.9174 15.885 27.9174 15.9006V16.0466V23.81C27.9174 24.2522 27.5527 24.6069 27.0982 24.6069H23.9534C22.5104 24.6069 21.1574 24.9822 19.9893 25.6403C18.7842 26.319 17.7853 27.2958 17.0876 28.4629C16.4375 29.5632 16.0517 30.8279 16.0253 32.1801V32.4783C16.0781 35.2752 17.6585 37.7071 19.9893 39.0232C21.1574 39.6813 22.5104 40.0567 23.9534 40.0567C25.3963 40.0567 26.7493 39.6813 27.9174 39.0232C30.2853 37.6865 31.8815 35.1929 31.8815 32.3344V32.3241V32.2778C31.855 31.2341 30.9777 30.3961 29.8994 30.3961C28.8054 30.3961 27.9174 31.2598 27.9174 32.3292C27.9174 34.4629 26.1415 36.1904 23.9534 36.1904C21.7652 36.1904 19.9893 34.4629 19.9893 32.3292C19.9893 30.211 21.7335 28.4938 23.9005 28.4681H23.9534H24.0062H27.9174C28.8106 28.4681 29.6352 28.1801 30.2958 27.6969C31.2578 26.9925 31.8815 25.8768 31.8815 24.6121V23.6455Z" clip-rule="evenodd" fill-rule="evenodd"></path>
<path fill="#212121" d="M63.7622 31.905C66.109 31.905 67.9864 31.112 69.3274 30.2308C69.9756 29.8343 70.2885 29.2836 70.2885 28.5126V24.3934C70.2885 23.6224 69.685 23.0276 68.9028 23.0276H64.5444C63.8739 23.0276 63.3151 23.5563 63.3151 24.2171C63.3151 24.878 63.8739 25.3846 64.5444 25.3846H67.6288V28.2703C66.6677 28.9752 65.3267 29.4378 63.8516 29.4378C60.6554 29.4378 58.5321 27.1028 58.5321 23.9308V23.8867C58.5321 20.9349 60.7225 18.4457 63.6057 18.4457C65.3043 18.4457 66.3995 18.9304 67.4053 19.6573C67.6288 19.8115 67.897 19.9657 68.2546 19.9657C69.0145 19.9657 69.618 19.3489 69.618 18.622C69.618 18.0933 69.3274 17.7188 69.0592 17.5205C67.6288 16.5072 66.0643 15.9565 63.7175 15.9565C59.0015 15.9565 55.6489 19.6132 55.6489 23.9308V23.9748C55.6489 28.4686 58.8674 31.905 63.7622 31.905Z"></path>
<path fill="#212121" d="M80.2832 31.8829C84.3733 31.8829 87.0107 29.57 87.0107 24.9661V17.4545C87.0107 16.7055 86.4072 16.1107 85.6473 16.1107C84.865 16.1107 84.2616 16.7055 84.2616 17.4545V25.0983C84.2616 27.9399 82.7641 29.3717 80.3279 29.3717C77.8693 29.3717 76.3718 27.8518 76.3718 24.9881V17.4545C76.3718 16.7055 75.7684 16.1107 75.0085 16.1107C74.2262 16.1107 73.6227 16.7055 73.6227 17.4545V25.0983C73.6227 29.57 76.2154 31.8829 80.2832 31.8829Z"></path>
<path fill="#212121" d="M96.8859 31.8609H97.0424C97.8247 31.8609 98.3387 31.4424 98.6293 30.7595L104.127 17.9831C104.195 17.8289 104.262 17.6087 104.262 17.4104C104.262 16.6835 103.658 16.1107 102.898 16.1107C102.25 16.1107 101.758 16.5293 101.58 16.9919L96.9977 28.2042L92.4829 17.08C92.2594 16.5072 91.79 16.1107 91.0748 16.1107C90.2925 16.1107 89.6891 16.7055 89.6891 17.4324C89.6891 17.6747 89.7561 17.873 89.8455 18.0713L95.3214 30.7595C95.612 31.4424 96.126 31.8609 96.8859 31.8609Z"></path>
<path fill="#212121" d="M107.333 30.4071C107.333 31.156 107.936 31.7508 108.718 31.7508C109.478 31.7508 110.082 31.156 110.082 30.4071V17.4545C110.082 16.7055 109.478 16.1107 108.718 16.1107C107.936 16.1107 107.333 16.7055 107.333 17.4545V30.4071Z"></path>
</g>
<defs>
<clipPath id="clip0_901_46">
<rect fill="white" height="48" width="110.566"></rect>
</clipPath>
</defs>
</svg>
